<svg version="1.1" id="Layer_1" xmlns="http://www.w3.org/2000/svg" xmlns:xlink="http://www.w3.org/1999/xlink" x="0px" y="0px"
	 width="512" height="512" viewBox="0 0 1024 400" preserveAspectRatio="xMidYMid meet" enable-background="new 0 0 1024 400" xml:space="preserve">
<path fill="#000000" opacity="1.000000" stroke="none" 
	d="
M283.285583,329.357025 
	C286.589722,332.408508 287.576050,338.043152 292.602600,338.984497 
	C298.753723,340.136444 302.335022,344.951843 307.216919,347.867462 
	C308.529877,348.651642 309.646759,349.289948 308.877014,350.836823 
	C308.101898,352.394470 306.689514,352.830505 305.098145,351.841919 
	C303.622101,350.925049 302.813751,348.968048 300.268250,348.761932 
	C300.544952,352.655396 303.773590,353.904419 305.719727,355.999512 
	C307.093414,357.478333 310.145996,358.064453 308.825195,360.861969 
	C307.359955,363.965576 305.243103,360.676300 303.083740,360.742676 
	C303.508759,361.618927 303.631866,362.455933 304.091003,362.730072 
	C309.221649,365.793121 308.293884,370.703247 308.114624,375.425751 
	C308.009186,378.203278 308.574738,381.095215 304.245453,381.380249 
	C302.285004,381.509308 302.481445,383.382111 303.256012,384.932922 
	C303.911865,386.246033 305.490204,387.010529 305.486053,388.704590 
	C301.397247,392.946655 300.890747,392.860443 298.280945,388.159210 
	C293.839783,380.158966 286.981628,374.017731 281.590729,366.731354 
	C276.691559,360.109558 270.871918,354.142487 266.272461,347.336395 
	C264.007996,343.985504 261.988068,340.312683 259.911377,336.373871 
	C257.629578,338.559906 255.336060,338.548828 254.477905,335.600494 
	C252.123962,327.513153 246.158325,321.144928 243.950012,313.062195 
	C241.894562,305.538879 237.246948,299.366974 233.578156,292.719147 
	C229.908005,286.068817 223.374954,283.463470 216.051880,282.011627 
	C203.352051,279.493774 190.353073,280.527435 177.597107,278.082336 
	C171.961334,277.002014 165.932281,276.502045 160.079254,275.926453 
	C149.820175,274.917480 139.687332,272.492981 129.548019,270.433044 
	C117.893097,268.065216 106.217751,265.732391 94.685677,262.847137 
	C86.190712,260.721771 77.943230,257.476837 70.172340,253.500870 
	C63.452076,250.062454 56.163517,248.605911 49.252132,245.920303 
	C44.318398,244.003159 39.261391,242.413818 34.346210,240.371674 
	C25.696857,236.778122 24.334694,232.412766 30.166016,224.977737 
	C29.490534,222.969086 27.676075,222.743301 25.930168,222.215805 
	C20.234066,220.494812 17.757404,214.878006 18.236090,208.949768 
	C18.776850,202.252747 23.909443,198.818863 26.978453,193.937836 
	C27.542585,193.040619 28.739973,192.231552 29.784254,191.994186 
	C40.318516,189.599915 49.058479,183.573181 58.376904,178.569351 
	C66.130356,174.405884 74.162125,170.604507 83.299133,169.377686 
	C91.183182,168.319092 98.353798,164.197189 105.686958,161.107239 
	C112.758949,158.127350 120.503113,157.090866 127.241646,153.280182 
	C149.797165,140.524948 174.004425,131.235611 197.307861,120.044174 
	C215.836929,111.145622 236.006348,106.447609 255.498215,100.065819 
	C266.005524,96.625656 276.388824,92.610680 287.311707,90.467926 
	C289.238800,90.089890 290.604065,88.600288 291.321777,86.937370 
	C294.227356,80.205406 299.510101,74.923164 302.514557,68.282402 
	C303.162079,66.851189 303.670502,65.319008 305.446625,65.347755 
	C307.163330,65.375542 307.089691,67.164352 307.683746,68.286514 
	C308.520111,69.866478 309.438354,71.403114 310.256256,72.843178 
	C312.377350,72.991577 312.555847,71.525490 312.911224,70.267136 
	C315.737457,60.259750 321.987518,51.892887 326.186066,42.543526 
	C326.390137,42.089058 326.613098,41.626133 326.915680,41.235653 
	C328.575256,39.093777 330.056000,35.088505 332.972107,36.584488 
	C336.187805,38.234135 333.002747,41.286465 332.014404,43.454475 
	C330.728516,46.275211 331.477051,48.563145 332.692657,51.046791 
	C333.369049,52.428688 335.086487,54.144581 333.382751,55.519978 
	C330.987701,57.453514 330.917938,53.602158 328.799011,53.333588 
	C323.063934,63.077400 321.943451,74.480896 318.581940,85.120544 
	C318.005524,86.945053 320.051819,87.880379 321.205017,88.910034 
	C327.445068,87.255859 329.466858,82.435173 331.147766,76.913429 
	C333.030670,70.728035 335.675323,64.774521 337.996613,58.352024 
	C338.004730,57.983940 337.984772,58.011547 337.984772,58.011547 
	C340.222626,55.314995 342.476044,52.688660 340.371704,48.784142 
	C339.685089,47.510223 340.796265,46.258152 341.302521,45.051216 
	C345.196594,35.767502 351.283508,27.843153 357.024933,19.706055 
	C357.953552,18.389967 359.094025,17.387493 360.773926,18.512701 
	C362.424866,19.618504 361.975861,21.094296 361.192566,22.470940 
	C360.703583,23.330282 360.015289,24.075903 359.419403,24.874800 
	C354.888702,30.949062 355.294800,37.222599 358.739716,44.377350 
	C361.101929,40.528465 363.670563,37.394978 365.087219,33.806675 
	C367.696655,27.197227 373.730408,22.929298 376.326782,16.367414 
	C376.838074,15.075254 378.232056,14.087400 379.337494,13.090616 
	C380.113495,12.390882 381.122131,12.199092 382.098083,12.843267 
	C382.982910,13.427272 383.983063,14.684023 383.441223,15.251399 
	C380.425690,18.409039 381.984802,24.937006 375.726074,25.628819 
	C376.448090,31.553604 372.544220,35.909813 370.294617,40.644104 
	C366.287720,49.076584 362.813873,57.620132 359.979950,66.514542 
	C358.694977,70.547432 356.295715,74.229492 355.047180,78.409363 
	C354.110413,81.545601 354.636536,82.923965 357.954376,82.779434 
	C361.265167,82.635201 364.569855,82.280495 367.880463,82.228928 
	C369.756226,82.199707 370.042145,80.807533 370.446594,79.654427 
	C376.087585,63.571735 385.431091,49.341316 392.686859,34.006653 
	C384.466766,43.235607 379.340546,54.553940 372.949280,65.201271 
	C370.247528,63.531342 371.036774,61.808952 371.975433,60.261192 
	C379.113251,48.492001 385.013031,35.932098 394.387512,25.587013 
	C396.597321,23.148413 398.331940,20.262505 400.152588,17.495152 
	C401.033569,16.156008 402.147644,15.147219 403.621979,14.842251 
	C405.377319,14.479151 407.423676,12.176651 408.943237,14.742654 
	C410.236481,16.926466 407.778473,17.908825 406.610382,19.115133 
	C404.081299,21.726913 403.423523,24.232903 405.619385,27.535728 
	C407.441772,30.276733 408.400391,33.614037 411.400299,35.483307 
	C412.678192,36.279564 413.675873,37.362881 412.551849,38.687981 
	C411.231049,40.245064 409.927246,39.083488 408.694763,38.111755 
	C405.345276,35.470848 403.797485,31.578791 401.605408,26.998859 
	C390.678619,45.533558 380.580658,63.359486 374.045898,82.771255 
	C378.808258,82.771255 383.547302,82.728561 388.284943,82.791824 
	C390.237976,82.817886 391.049896,81.882584 391.952271,80.178436 
	C394.751129,74.892845 397.878845,69.779266 400.950378,64.641655 
	C401.704865,63.379711 402.543213,62.047894 404.675293,62.316544 
	C402.557922,69.677773 397.134644,75.209465 395.254517,82.680229 
	C396.779938,83.489220 398.713715,84.718941 399.218842,82.198982 
	C400.477478,75.919647 404.743622,70.917084 406.166626,64.733673 
	C406.509979,63.241707 407.081207,62.209480 404.992981,62.005928 
	C404.384857,59.595425 404.962341,57.239353 406.089508,55.244942 
	C410.058624,48.222115 413.904999,41.085232 418.482452,34.464901 
	C422.209290,29.074802 426.894379,24.343405 431.204163,19.362825 
	C432.316711,18.077126 433.849426,17.336559 435.494293,16.946079 
	C436.681671,16.664200 437.838165,16.791750 438.555298,17.986753 
	C439.128357,18.941700 439.185883,20.286495 438.404083,20.756521 
	C432.467499,24.325804 433.393280,29.205500 435.497467,34.427738 
	C435.611237,34.710079 435.100769,35.243923 434.883606,35.655560 
	C432.110413,35.868992 431.659943,33.021336 429.570709,31.848783 
	C418.858185,47.981167 409.267090,64.607132 402.726318,83.709946 
	C407.350922,83.709946 411.453217,83.835724 415.544586,83.677910 
	C420.585266,83.483482 418.544556,75.957657 423.791138,75.473953 
	C425.018036,78.836418 422.313324,80.705482 421.686157,83.515556 
	C424.741333,82.469223 425.258423,79.331177 426.625366,76.861824 
	C428.232788,73.958023 429.958160,71.115868 431.723328,68.304062 
	C433.398956,65.634880 435.454407,63.171333 436.860413,60.374813 
	C438.298187,57.515095 442.208557,56.255871 442.180664,52.307987 
	C439.925812,52.256546 439.566498,55.162178 437.296173,54.775375 
	C435.756439,53.006111 437.367462,51.637325 438.294373,50.582970 
	C445.056000,42.892021 451.898712,35.270348 458.834198,27.735779 
	C460.464233,25.964911 462.902344,23.465710 465.103485,25.690004 
	C467.619049,28.232077 465.164948,30.313185 462.845093,32.043442 
	C458.474670,35.303104 458.548065,36.423111 462.900696,42.221748 
	C467.294434,48.075153 470.963837,48.115597 475.280334,42.339577 
	C477.066925,39.948936 478.701965,37.432926 480.632050,35.166470 
	C481.712524,33.897675 483.001556,31.842997 485.107391,33.742107 
	C486.971375,35.423103 485.848633,37.383171 484.644501,38.606945 
	C481.202606,42.104923 481.483276,45.522156 483.945984,49.362942 
	C484.752136,50.620193 486.043121,52.564960 483.900696,53.693096 
	C481.909271,54.741726 480.994263,52.799946 480.093781,51.442909 
	C479.384430,50.373863 478.800476,49.221592 478.019470,47.859852 
	C473.685791,51.897476 470.799469,56.469116 467.920837,61.114922 
	C462.341095,70.119972 457.328033,79.494164 450.707397,87.838654 
	C449.359222,89.537827 448.251343,91.061630 445.686127,89.167709 
	C446.212219,86.985512 449.210083,86.103035 448.967957,83.262497 
	C448.996582,82.989204 448.962463,83.025642 448.962463,83.025642 
	C450.416077,80.826645 454.336823,79.254181 450.496674,75.765511 
	C449.529694,74.887054 450.958954,73.659950 451.553253,72.721619 
	C456.360077,65.132019 461.892334,58.080841 467.900848,50.826717 
	C463.487396,48.251122 459.702454,44.990170 457.396484,39.493946 
	C452.397003,46.283840 447.842896,52.544254 443.208038,58.744286 
	C437.521729,66.350845 432.950043,74.628769 428.442596,82.949768 
	C426.312805,86.881485 423.470062,88.919281 418.670624,87.519928 
	C415.657959,86.641518 412.373444,86.375809 409.420044,87.965782 
	C408.164307,88.641823 407.381897,88.272881 406.241699,87.796738 
	C403.382446,86.602707 400.321747,86.744095 397.417999,87.558365 
	C393.930450,88.536346 390.535278,88.528465 387.083282,87.606148 
	C382.029633,86.255882 377.097046,87.655090 372.183411,88.467491 
	C369.691956,88.879440 367.088409,89.757774 364.829834,88.711136 
	C357.321930,85.231926 349.339386,86.304886 342.027740,87.712891 
	C333.173889,89.417877 324.388458,90.543846 315.481476,91.668053 
	C306.056854,92.857590 295.819672,92.639488 287.215424,98.194710 
	C286.945892,98.368729 286.551941,98.542763 286.270996,98.478035 
	C279.771820,96.980637 274.946838,100.659767 269.744476,103.519516 
	C267.517090,104.743912 265.678467,106.371239 263.598358,107.710564 
	C260.482544,109.716789 259.195068,109.271317 257.751709,105.625839 
	C250.050476,109.981209 241.489761,112.172218 233.039474,113.784828 
	C224.017029,115.506638 216.455444,120.251190 208.046463,123.062401 
	C202.586700,124.887657 197.549698,128.562683 192.574081,129.786072 
	C186.051666,131.389771 181.305466,135.225159 175.602448,137.586182 
	C165.653061,141.705154 155.412552,145.100403 145.691040,149.843491 
	C138.864380,153.174194 132.631271,157.425476 126.174194,161.339478 
	C124.798134,162.173569 122.501984,163.346680 121.599762,162.790359 
	C117.241745,160.103271 115.311783,164.050629 112.196625,165.279373 
	C105.479965,167.928726 98.760246,170.652985 91.819191,172.814178 
	C81.265053,176.100311 70.095718,177.375809 60.826290,184.918335 
	C57.087864,187.960297 50.846996,188.563248 46.036079,191.151306 
	C42.517811,193.043976 39.229004,194.772720 36.604553,198.114883 
	C34.563538,200.714066 30.724815,201.553940 27.866701,203.661102 
	C22.663250,207.497360 22.333830,212.716064 28.234713,215.572708 
	C34.809780,218.755722 41.612652,221.530212 48.482231,224.025955 
	C55.862648,226.707275 62.424404,231.076843 69.757599,233.807114 
	C71.090294,234.303284 72.260132,235.308014 71.781532,236.807266 
	C71.054253,239.085510 68.987000,238.161575 67.250000,238.136246 
	C70.407837,239.302750 72.629509,243.559372 76.783211,240.583878 
	C77.157913,240.315430 78.329353,240.903275 78.985466,241.321472 
	C91.372437,249.216980 104.474594,255.456619 118.871727,258.756287 
	C119.428894,258.883972 119.893158,259.417023 120.736526,259.988892 
	C118.627838,263.049255 115.625160,262.530914 113.485970,261.647217 
	C104.794144,258.056549 95.482689,256.389923 86.914322,252.285873 
	C79.171463,248.577225 71.000252,245.726898 63.423710,241.601639 
	C57.601154,238.431396 51.721756,235.559998 45.000328,234.661026 
	C43.184765,234.418198 40.394871,233.178894 43.850586,230.553757 
	C42.402916,230.553757 40.918667,230.553757 39.468006,230.553757 
	C38.913342,232.036087 40.369503,233.887238 38.266705,234.642639 
	C37.027119,235.087952 35.980412,234.548630 34.997864,233.890793 
	C33.364994,232.797531 34.695499,231.659317 35.098148,230.439178 
	C32.892765,230.623779 32.315292,232.009384 32.082733,234.206726 
	C42.451996,237.893265 52.251133,243.052612 63.014378,245.962784 
	C73.243195,248.728455 82.340225,254.529083 92.629173,257.397217 
	C107.187248,261.455444 121.990700,264.218079 136.807343,266.993896 
	C141.709030,267.912231 146.649338,268.640411 151.526215,269.671936 
	C163.486328,272.201630 175.479858,272.269470 187.520447,270.449402 
	C189.693344,270.120941 191.822937,270.238831 193.980408,270.602966 
	C196.254532,270.986786 195.135773,272.372223 194.897797,273.479340 
	C199.993698,273.609344 204.560379,269.634155 209.891205,271.595154 
	C210.201569,274.080109 207.426605,273.685181 206.691132,275.952606 
	C220.453217,277.321259 234.380951,278.731445 240.607285,294.620026 
	C239.274704,286.813171 237.252151,279.408234 246.213989,275.399048 
	C248.356720,274.440491 250.467575,274.468689 251.745544,277.092438 
	C251.055710,279.119476 248.910919,279.046967 246.879654,280.410156 
	C251.165680,281.473175 254.740707,283.554535 258.903107,281.658936 
	C259.349854,281.455475 259.985901,281.135986 260.322205,281.301300 
	C265.421265,283.808014 270.968628,281.744263 276.218018,282.958618 
	C287.199677,285.498932 298.206757,287.870453 309.303772,289.955444 
	C327.255737,293.328369 345.116821,292.340607 363.118561,292.091278 
	C369.397400,292.004303 375.910583,294.026733 382.341125,294.967316 
	C384.519958,295.285980 386.256958,296.007324 388.393066,294.754211 
	C390.806519,293.338409 393.474884,293.228851 395.900299,294.980316 
	C396.564392,295.459930 397.007599,296.144409 398.023712,295.877319 
	C406.069336,293.762665 414.259857,295.452301 422.376556,295.036316 
	C426.945892,294.802124 431.470154,294.484436 435.785828,297.441681 
	C439.914825,300.270996 444.164734,296.450134 448.432007,296.109344 
	C450.183319,295.969513 451.867828,294.843842 453.752228,294.980133 
	C461.718994,295.556519 469.508453,293.398956 477.358704,293.378387 
	C480.404083,293.370361 483.624725,292.610504 486.744293,293.494385 
	C488.526245,293.999329 490.374603,294.060425 491.928864,292.648712 
	C493.013153,291.663879 494.490692,291.455750 495.705475,291.787842 
	C503.799133,294.000336 511.843262,290.809814 519.964844,291.761566 
	C526.477295,292.524719 532.832520,291.181946 538.921997,288.426025 
	C549.198242,283.775391 560.581543,283.415710 571.302490,280.461761 
	C579.443054,278.218781 587.986023,277.288391 595.526062,273.042664 
	C599.507202,270.800934 604.143250,270.551788 608.438721,269.443268 
	C620.272705,266.389282 630.898376,260.092590 642.985413,257.628448 
	C652.711853,255.645554 662.051086,251.832504 671.673889,249.247665 
	C678.055176,247.533554 684.411560,244.546356 691.360718,247.419571 
	C692.482178,247.883286 694.464905,247.244583 695.620056,246.472794 
	C700.073059,243.497574 704.589966,242.245438 709.794373,244.418457 
	C711.916260,245.304398 713.974731,243.696609 716.142761,243.599304 
	C734.959412,242.754852 753.756409,241.369614 772.621460,242.406250 
	C777.427429,242.670334 782.273132,242.120712 787.101318,242.096588 
	C792.057800,242.071808 797.013855,241.597610 801.743958,244.155472 
	C803.448608,245.077316 805.989380,244.627350 808.136169,244.529282 
	C823.171875,243.842422 837.798645,246.724014 852.426453,249.558105 
	C854.262085,249.913757 856.588257,249.987030 856.811951,252.754272 
	C855.723999,254.608246 853.838135,254.322479 852.329712,254.072983 
	C846.847046,253.166168 841.284424,253.246689 835.774231,252.363953 
	C831.157288,251.624313 826.324646,253.568832 821.516846,252.153030 
	C817.064758,250.841995 812.381653,251.333191 807.805542,250.981079 
	C804.207031,250.704163 800.575928,249.507935 797.316956,249.218338 
	C792.202271,248.763840 787.182922,246.223984 781.989563,247.541702 
	C779.536987,248.163956 777.474915,247.906982 775.268982,246.879959 
	C774.258240,246.409393 772.994324,246.219864 771.870972,246.293777 
	C757.356384,247.248795 742.761414,247.675003 728.286072,247.586060 
	C713.559021,247.495575 699.870667,251.715881 685.678650,253.562805 
	C676.181824,254.798676 667.307312,258.069977 657.990417,259.354706 
	C650.096375,260.443268 642.475342,262.040070 635.374268,265.636658 
	C633.664185,266.502716 631.777954,264.081970 630.214355,266.436035 
	C632.976379,269.633270 637.239746,268.688416 640.393738,270.339691 
	C642.124756,268.945312 641.192139,267.067139 641.653870,265.276764 
	C645.341125,264.518890 649.343811,264.998291 652.290039,266.215546 
	C659.495850,269.192627 666.761841,267.032410 673.938538,267.807465 
	C680.513794,268.517578 687.223816,268.006012 693.874329,267.985718 
	C698.438049,267.971771 702.343933,270.460266 706.703674,271.350067 
	C709.431274,271.906830 711.357971,274.406799 707.276733,277.785919 
	C713.949036,277.306213 715.309021,281.144440 716.460388,286.744019 
	C711.756042,284.530182 707.670105,284.240753 704.135315,287.774597 
	C708.159912,287.743256 712.061707,288.983704 716.047119,289.441956 
	C719.288208,289.814606 720.276978,291.874634 721.007019,294.230042 
	C721.756653,296.648773 721.339355,298.914337 717.771240,299.966370 
	C722.753845,300.591614 722.556763,303.105194 721.447693,306.476166 
	C720.449768,309.509338 719.647705,311.059662 715.636108,310.547943 
	C701.095337,308.693207 686.966431,305.414978 673.217957,300.367310 
	C670.587952,299.401703 668.460815,298.453308 670.556763,295.253937 
	C666.646240,292.717865 663.524902,293.275909 660.377136,296.560303 
	C659.022888,297.973297 658.782898,298.996307 659.622620,300.369202 
	C660.446228,301.715820 661.840149,302.697449 663.407288,301.825226 
	C665.866821,300.456329 667.684753,300.005707 668.683960,303.428650 
	C669.038269,304.642395 670.006226,303.477966 670.695251,303.469421 
	C674.307861,303.424652 677.749695,303.292114 680.018066,307.327515 
	C681.626953,310.189667 684.688843,311.469482 688.255920,310.316803 
	C691.104919,309.396240 692.598816,310.569183 693.025574,314.008026 
	C687.399658,313.903595 682.095032,315.112091 677.130615,311.343323 
	C674.872009,309.628693 671.335205,308.777344 669.143188,311.779114 
	C667.617432,313.868561 662.593628,311.934967 664.706726,317.608795 
	C660.566956,315.385803 655.629150,316.392456 655.870117,310.596649 
	C655.918884,309.425354 654.699768,309.028534 653.850037,308.595428 
	C649.898132,306.581390 645.908081,304.642365 641.841675,302.632050 
	C639.806213,305.366028 641.099365,306.555084 643.459839,306.983643 
	C647.275818,307.676483 649.562073,310.901489 652.873535,312.415527 
	C653.612427,312.753326 653.789124,313.752930 653.418213,314.637939 
	C652.154602,316.233337 650.677002,314.536102 649.296448,314.732574 
	C649.340454,315.199707 649.250122,315.628510 649.413818,315.776581 
	C654.419006,320.305450 660.483643,324.076141 666.664062,325.170807 
	C672.355286,326.178864 677.559448,328.084259 682.973022,329.630096 
	C684.428711,330.045807 686.162659,330.216766 686.828247,328.402344 
	C687.634155,326.204987 685.534302,325.983368 684.289856,325.501556 
	C679.795166,323.761566 675.255127,322.134216 670.700439,320.556335 
	C669.087830,319.997650 667.548828,319.522583 667.223694,317.475433 
	C669.113770,315.938934 670.897766,316.353424 672.856873,317.114136 
	C676.709534,318.610138 680.501709,321.842285 684.776794,317.885376 
	C685.093201,317.592560 686.218750,317.721924 686.639404,318.061829 
	C692.530212,322.821991 699.000183,323.475769 706.096008,321.319153 
	C708.334290,320.638885 709.053467,322.130707 708.399109,324.273285 
	C706.966980,328.962402 701.984436,331.419159 697.256592,329.765442 
	C696.182739,329.389771 695.112610,328.815521 693.525452,329.403656 
	C694.515991,330.800659 695.433716,332.095032 696.405212,333.465271 
	C692.663757,338.347595 687.016846,337.482208 682.335571,337.792206 
	C679.707336,337.966248 676.515259,337.714111 673.159546,336.834473 
	C672.177551,332.051849 671.896973,327.594330 665.262390,329.102051 
	C663.935364,329.403625 662.083923,328.244446 660.714905,327.378448 
	C650.940918,321.195343 641.225769,314.919098 631.500854,308.658600 
	C629.614563,307.444305 627.616089,306.297943 629.957153,303.660400 
	C631.834473,301.545288 630.875000,299.760742 629.031799,298.116364 
	C627.061646,296.358704 625.167480,294.512695 623.293030,292.651917 
	C621.901184,291.270142 620.447510,290.800323 618.757446,291.597595 
	C621.921204,295.363922 622.868958,300.627747 627.480469,301.821198 
	C627.847717,304.705170 624.844788,303.786102 624.862854,305.971375 
	C626.573669,308.184418 627.613831,311.310333 631.611511,311.330902 
	C633.025879,311.338165 633.676697,313.057617 634.479065,314.399231 
	C635.981201,316.910645 635.674561,320.041351 637.779175,322.306641 
	C643.344910,328.297272 651.526855,330.578461 657.316528,336.246246 
	C657.960632,336.876709 659.172546,336.947113 660.227600,335.549835 
	C654.710876,331.133392 649.176392,326.702728 643.449951,322.118378 
	C647.341003,320.701599 650.585266,321.788422 654.150024,325.399139 
	C659.490356,330.808350 665.894043,334.477448 673.010620,336.991669 
	C673.764648,338.622559 675.098755,340.354797 673.217407,341.942169 
	C671.718872,343.206604 670.059692,342.429565 668.567627,341.581604 
	C665.283264,339.715088 662.521667,343.067688 658.857727,342.227905 
	C654.090820,341.135345 649.491882,340.220764 645.149902,337.464569 
	C641.065857,338.987030 637.092896,341.033295 632.242004,337.690399 
	C630.043091,336.175079 626.064941,336.914307 622.934448,337.155670 
	C618.358704,337.508545 614.403748,336.804352 611.174011,333.188751 
	C608.403870,330.087677 604.420715,328.693207 600.870178,326.067017 
	C601.070984,328.896179 603.492798,329.440826 604.464722,331.115601 
	C605.485291,332.874207 605.879700,334.735168 604.098267,336.040314 
	C602.358337,337.315125 601.697632,335.363464 600.587158,334.442413 
	C592.184998,327.473755 585.191345,319.136017 578.674316,310.539093 
	C575.384583,306.199524 570.837036,303.638000 567.375061,299.728638 
	C565.342163,297.433075 565.277771,295.841980 568.401978,294.255737 
	C570.488281,297.974274 573.402771,300.505310 577.468872,301.547699 
	C581.556396,302.595612 580.481812,306.986603 582.474304,309.540009 
	C585.572632,313.510864 588.695984,318.310669 593.092102,319.547882 
	C599.869019,321.455078 605.448181,325.272461 611.638245,328.224457 
	C608.588318,322.805695 602.887817,320.280243 599.037842,315.835663 
	C592.960571,308.819641 585.334473,303.228912 580.145325,295.398163 
	C579.270508,294.077911 577.821472,292.700104 579.046997,290.925537 
	C579.439697,290.356873 580.482117,289.857483 581.157715,289.934753 
	C583.167969,290.164795 583.615417,292.014130 584.104431,293.548035 
	C585.295593,297.285278 587.801331,299.778046 591.414185,300.877930 
	C593.602417,301.544067 594.421814,303.967896 596.942322,304.454285 
	C598.367310,301.236938 595.151733,300.287689 594.087646,298.438324 
	C593.128418,296.771118 590.006592,295.360626 592.861267,293.285248 
	C594.798523,291.876801 596.399414,292.916901 597.933350,295.299896 
	C599.489929,297.718048 602.224670,299.279510 603.375977,302.348938 
	C604.034119,304.103577 605.926453,302.827209 607.958801,302.098938 
	C604.783691,297.255646 601.588745,293.029816 596.963806,290.079071 
	C595.374634,289.065247 593.419495,288.227631 594.268738,285.996216 
	C595.207703,283.528992 597.051819,283.662903 599.127930,284.970825 
	C601.571289,286.510132 604.026245,284.082062 604.744141,283.140778 
	C606.793213,280.454224 609.958984,280.110931 612.406799,278.975891 
	C615.968567,277.324402 619.324036,280.910522 622.781860,282.159973 
	C628.008301,284.048553 632.793457,287.111786 638.856689,288.327484 
	C640.180847,290.335510 639.870544,291.901154 638.264771,292.962463 
	C636.458984,294.155975 635.292908,292.777832 633.917114,291.757690 
	C629.725403,288.649414 623.486206,286.235260 619.669128,286.314972 
	C629.816895,292.156281 639.571960,297.388428 649.609375,302.099182 
	C650.916199,302.712494 652.271179,302.999878 653.160156,301.598022 
	C653.963074,300.331665 653.746765,299.063232 652.353088,298.209595 
	C648.327576,299.996857 644.626282,298.008881 641.408142,292.233276 
	C646.189026,288.556091 649.452637,295.541321 653.830322,294.697968 
	C653.798523,292.357666 651.162659,292.406799 651.507568,290.496429 
	C654.788818,286.512482 658.783386,289.164032 662.202026,289.562531 
	C663.495789,288.589233 662.090210,286.332245 664.751404,286.429230 
	C666.939819,292.108582 671.985535,292.004791 676.951965,292.381012 
	C677.642334,289.624573 675.457825,285.837555 678.831238,285.428680 
	C682.993774,284.924225 687.375183,285.937775 691.617981,286.584747 
	C692.691040,286.748383 693.283630,288.211182 692.993347,289.486389 
	C692.740479,290.596741 691.871704,291.039673 690.749329,291.052368 
	C686.467529,291.100708 685.451111,293.369720 686.770752,296.987457 
	C685.320312,298.619019 682.993408,297.629181 680.300537,299.677429 
	C684.554932,299.147125 687.017395,300.891846 689.760620,301.237854 
	C693.778687,301.744659 697.623047,304.882690 701.733276,302.840179 
	C704.659973,301.385803 706.573486,301.705780 708.766296,303.962555 
	C711.034546,306.296967 713.698364,307.898376 717.143616,304.972565 
	C715.036316,302.620300 713.396240,300.009735 711.062866,298.411285 
	C708.872681,296.910889 704.626526,299.260468 703.414001,294.546753 
	C707.420715,293.746094 711.595947,296.581879 715.850647,293.137695 
	C711.774963,291.620667 708.261597,292.240875 704.915344,292.274536 
	C700.537476,292.318573 697.376404,291.815216 699.366699,286.269318 
	C695.522522,284.278259 690.740417,286.731689 687.497864,283.143524 
	C689.632446,280.065887 693.019165,282.502655 696.197266,280.484589 
	C688.927368,280.101715 682.602905,279.768616 675.997009,279.420685 
	C676.805725,282.248566 675.250610,283.963745 672.671692,283.020294 
	C667.575256,281.155945 663.731995,282.973846 659.909180,285.946045 
	C657.082947,288.143402 655.001709,287.555817 654.278015,283.835205 
	C656.020630,282.703644 657.470642,281.732117 658.934387,280.751434 
	C657.863831,277.910431 655.645874,277.931885 652.857849,277.830475 
	C653.947876,280.098358 654.388489,282.014221 653.652588,284.099182 
	C651.509216,284.170349 649.736145,284.170349 648.119080,284.170349 
	C646.721680,285.969818 649.529480,287.832458 647.275940,289.715668 
	C644.702515,289.192383 641.834106,288.609100 638.965759,288.025848 
	C631.267883,283.940643 623.796997,279.307098 615.781677,275.988525 
	C611.404480,274.176208 606.705811,277.457336 602.468933,279.122253 
	C595.738220,281.767181 588.619873,282.207642 581.729431,283.852966 
	C578.375488,284.653809 574.889099,284.845795 572.316895,287.764618 
	C570.872864,289.403259 568.587036,289.877655 566.397400,290.064026 
	C563.927002,290.274292 561.561462,289.493988 560.321716,293.349304 
	C559.862366,294.777863 554.760193,296.526337 551.601685,294.365509 
	C546.979614,299.265808 541.448608,302.439819 534.814270,304.049011 
	C542.342346,303.414673 548.116760,307.059601 553.634766,311.429901 
	C554.756226,312.318146 556.058105,313.048676 554.841736,314.534485 
	C553.668762,315.967346 552.616150,314.861969 551.444519,314.089447 
	C548.264954,311.993011 545.432922,308.904602 539.960510,309.605286 
	C544.943970,318.563385 550.579041,326.087860 557.077209,333.584869 
	C559.517822,330.005096 562.120544,327.273315 564.766357,324.898376 
	C564.706787,322.440155 561.471130,322.101501 561.996948,319.497864 
	C566.256531,318.333893 567.194519,324.223450 572.258057,324.041290 
	C566.981934,318.911224 563.881165,313.203430 558.910339,309.065521 
	C556.820618,307.325958 555.303955,305.195557 553.775635,303.000336 
	C551.464478,299.680664 553.668457,298.159302 556.243347,297.725922 
	C561.938416,296.767303 568.068115,301.695099 569.427490,307.418030 
	C570.310791,311.136322 572.951233,314.068878 576.050964,315.906586 
	C580.570618,318.586151 582.797607,323.195343 586.398315,326.592865 
	C587.317505,327.460205 587.954712,328.869720 586.749268,329.597137 
	C584.908264,330.708252 585.284607,331.717285 585.975098,333.247864 
	C586.552612,334.528351 586.362244,335.959778 584.861206,336.652649 
	C583.381531,337.335693 581.812622,337.237000 580.734924,335.949738 
	C578.649292,333.458588 575.880859,331.942352 573.192261,330.300385 
	C569.196960,327.860443 565.811768,328.976074 561.915405,333.597076 
	C559.023621,337.026733 560.940491,339.258087 563.348999,341.683258 
	C564.750671,343.094635 567.286926,344.495483 565.046204,347.001770 
	C563.170532,349.099701 561.325867,347.913361 559.289368,346.749390 
	C553.078430,343.199493 547.748169,338.719147 544.558411,332.278168 
	C542.666443,328.457825 539.427002,328.843262 535.040955,329.099792 
	C540.637634,323.399323 535.953796,321.187775 533.222229,317.886566 
	C530.533325,322.847015 536.059692,327.064758 533.721130,331.612427 
	C527.074890,328.253510 525.584045,312.778198 531.151611,305.193085 
	C529.852844,303.867035 527.959412,304.983429 526.315308,303.742676 
	C525.894653,301.324432 527.800476,300.347473 528.701599,298.058502 
	C526.238403,299.469025 523.579407,298.245728 521.782043,300.128937 
	C522.028198,302.994080 524.715515,302.676514 526.017029,303.989929 
	C524.276001,306.449890 521.776367,306.693573 518.541260,306.052704 
	C522.719299,315.543060 526.589355,324.625671 530.767395,333.564392 
	C531.550171,335.239136 533.617004,336.287506 534.997986,337.715179 
	C536.981567,339.765747 539.594666,341.563599 538.579956,345.658386 
	C532.169067,343.606476 528.792603,338.716705 525.921021,333.627625 
	C523.242493,328.880615 521.384888,323.689453 519.265381,318.647247 
	C513.137390,304.068848 507.033386,297.717682 489.040985,301.714691 
	C483.756683,302.888580 478.411011,302.392517 473.134857,302.180359 
	C465.567657,301.876129 458.215179,303.005463 450.942932,304.633270 
	C447.440094,305.417328 443.911133,305.839844 440.567749,305.258148 
	C431.614807,303.700409 422.639099,304.353394 413.690125,304.428375 
	C397.040466,304.567902 380.562408,303.298523 364.163147,300.379486 
	C358.972870,299.455627 353.586334,299.425537 348.285583,299.369446 
	C331.240265,299.189087 314.603333,295.369843 297.757660,293.483826 
	C290.759949,292.700378 283.689056,290.135254 276.497925,289.223175 
	C272.685760,288.739655 268.865723,287.581299 264.695892,288.839783 
	C274.864563,291.481079 284.371216,295.354156 292.562988,302.002838 
	C286.011261,301.344757 280.474731,297.932434 274.343903,296.097107 
	C286.366730,302.425201 295.637970,313.036346 308.680206,317.660736 
	C309.718048,318.028687 310.550812,318.508240 310.352936,319.730011 
	C310.154236,320.956848 309.125702,321.195801 308.088654,321.225494 
	C306.623474,321.267426 305.156189,321.236115 303.670593,321.236115 
	C302.814514,324.112946 305.001434,324.776733 306.648224,325.742706 
	C308.106720,326.598175 309.626282,327.323517 309.485107,329.411377 
	C309.418579,330.395660 309.617401,331.498779 308.446045,331.962952 
	C307.339111,332.401550 306.718079,331.601959 305.896210,330.969513 
	C298.248993,325.084808 291.587799,317.904053 282.363953,313.049011 
	C281.170349,312.093079 280.504242,311.484772 279.838104,310.876434 
	C277.618103,305.739868 270.880798,304.487061 269.389801,298.723724 
	C264.480957,299.852783 264.423309,295.838226 263.150604,292.974731 
	C262.647095,291.841888 261.412140,291.202148 260.277954,292.268463 
	C258.885101,293.577942 257.579834,292.992218 255.243820,291.968414 
	C258.496582,295.864990 259.728882,299.983459 264.003204,302.009674 
	C266.861115,303.364471 265.975006,307.477814 262.188293,309.946869 
	C273.913483,325.776825 284.116882,342.691864 298.045258,357.503479 
	C298.677521,354.499756 296.621643,353.231720 295.322449,351.533966 
	C290.208160,344.850861 284.149750,338.899384 279.863678,331.574280 
	C278.257294,328.828918 278.849792,327.756256 282.524261,328.791748 
	C282.987152,329.041565 283.285583,329.357025 283.285583,329.357025 
M360.447327,48.115364 
	C356.510803,53.784405 354.961700,60.945141 349.294556,66.808617 
	C348.700378,61.048748 351.169617,57.166920 353.459625,53.934307 
	C357.323822,48.479580 356.695953,44.132423 352.268372,39.262135 
	C343.829498,53.521854 338.477875,68.865807 332.155426,85.075424 
	C336.913208,84.501778 339.874542,84.514915 341.409149,80.407654 
	C342.500793,77.485985 343.826843,74.602295 344.988068,71.672821 
	C345.605896,70.114296 345.860779,68.102676 348.638306,67.772858 
	C349.781097,74.073250 344.424652,78.030708 343.434631,83.539703 
	C347.292542,83.521935 349.938904,82.451988 350.738190,78.346077 
	C351.240417,75.766197 352.172638,73.247520 353.118439,70.780540 
	C356.474701,62.026325 359.919708,53.306126 363.456635,44.251614 
	C361.570068,44.954895 361.516174,46.495605 360.447327,48.115364 
M298.368011,364.102600 
	C295.474823,363.314606 295.671539,358.722717 292.231110,358.575439 
	C291.519531,359.560730 291.723389,360.201355 292.116455,360.741943 
	C294.072083,363.431763 295.895905,365.759735 293.819336,369.635864 
	C292.516449,372.067871 296.138702,375.212097 298.956909,374.621613 
	C301.747009,374.037018 302.779114,371.768280 304.019745,369.168610 
	C302.346558,367.601715 300.665466,366.027374 298.368011,364.102600 
M698.742554,275.418549 
	C696.313416,271.727631 691.606323,272.094818 689.321411,273.167664 
	C684.312134,275.519623 680.014709,274.208252 675.528503,272.994873 
	C674.841736,273.860962 674.435303,275.109436 675.258728,275.277679 
	C684.553040,277.177124 693.986755,276.806091 703.417664,276.644470 
	C702.018127,276.403534 700.618652,276.162598 698.742554,275.418549 
M271.460724,341.074463 
	C270.494690,339.790955 270.206390,337.640320 267.048370,337.978851 
	C272.241180,346.393982 277.127106,354.244904 284.992554,359.854126 
	C280.628265,353.776947 276.264008,347.699799 271.460724,341.074463 
M606.427246,287.858246 
	C605.320923,295.115662 607.692200,298.109741 613.934448,297.493988 
	C615.072266,297.381744 615.923706,297.155396 616.085876,295.991577 
	C616.262756,294.721680 615.161499,293.996246 614.279785,294.075653 
	C609.751343,294.483429 609.759094,291.515503 609.597351,288.358307 
	C609.487061,286.203430 608.561768,285.117584 606.427246,287.858246 
M312.801544,79.332176 
	C312.307159,82.302399 309.936249,84.916351 310.845337,88.254768 
	C313.768616,87.715111 317.450317,77.266373 317.248840,70.729080 
	C315.093842,73.008102 314.694702,76.124466 312.801544,79.332176 
M550.426697,334.571503 
	C551.259705,334.872986 551.366394,336.374847 552.873169,335.907013 
	C549.477478,329.212341 545.016907,323.460938 539.505615,316.995148 
	C539.497192,320.763763 540.969604,322.286102 542.253845,324.008789 
	C544.790283,327.411072 548.368591,330.019165 550.426697,334.571503 
M306.216278,78.023643 
	C305.060699,81.131081 305.124268,84.247307 306.106873,87.993736 
	C307.446625,84.556839 308.576172,81.672203 309.695343,78.783539 
	C310.460449,76.808739 308.994202,75.924690 307.658234,75.476746 
	C306.099304,74.954063 306.481262,76.513313 306.216278,78.023643 
M607.795837,313.898407 
	C609.258850,313.327423 608.890747,312.398315 608.079285,311.659515 
	C606.196533,309.945374 604.215942,308.338715 602.275024,306.688507 
	C602.615540,309.852722 603.208069,312.546265 603.323669,315.087799 
	C605.263245,316.062805 606.028931,314.396576 607.795837,313.898407 
M299.283234,83.073982 
	C298.599121,84.172401 297.812805,85.222366 297.262207,86.384064 
	C296.794556,87.370766 296.087982,88.581627 297.213074,89.515984 
	C297.756195,89.967041 298.766907,90.250664 299.428497,90.079399 
	C300.719971,89.745079 300.951080,88.475784 300.977936,87.307281 
	C301.028900,85.088562 300.992676,82.867844 300.992676,80.091690 
	C300.335907,81.188751 299.940002,81.850037 299.283234,83.073982 
M661.336426,308.044189 
	C662.847656,308.579163 664.359802,309.127655 666.265930,307.750854 
	C663.158325,304.504944 659.317993,306.063293 656.188721,304.817261 
	C657.197937,306.863983 659.071350,307.083038 661.336426,308.044189 
M641.850769,282.626221 
	C643.767761,281.906616 643.882751,280.815460 641.930298,280.312714 
	C640.028076,279.822815 637.949646,280.016663 635.628723,279.893341 
	C636.925781,282.862061 638.961853,282.955841 641.850769,282.626221 
M623.088745,271.318878 
	C621.503662,273.574066 621.558472,275.151947 624.818481,275.568207 
	C625.785645,274.467499 624.770752,272.816467 625.989502,271.936432 
	C626.863892,271.305023 626.886597,270.585846 626.029907,269.983521 
	C624.862671,269.162903 623.909668,269.426422 623.088745,271.318878 
M536.277588,314.433044 
	C536.586975,314.513062 536.893494,314.626648 537.207397,314.652679 
	C537.302002,314.660492 537.531555,314.388062 537.505310,314.306488 
	C536.921448,312.493225 535.924622,310.980408 534.530640,309.748322 
	C532.520874,311.006012 531.984436,312.594513 532.020691,314.719574 
	C533.303040,313.659241 534.448853,312.575531 536.277588,314.433044 
M299.315063,318.737488 
	C298.159088,315.969757 295.153687,315.853424 293.007202,314.464386 
	C295.148895,315.937958 294.963104,320.279236 299.315063,318.737488 
z"/>
<path fill="#000000" opacity="1.000000" stroke="none" 
	d="
M666.997314,97.988457 
	C668.567810,98.221954 670.312195,98.049675 671.423401,100.062767 
	C668.679871,103.517021 663.430298,102.336449 660.575012,105.669365 
	C661.931335,106.301765 663.240234,106.912010 664.769409,107.780548 
	C664.989746,108.038841 664.928467,108.161766 664.728271,108.420776 
	C663.416565,112.828651 658.088196,111.342125 655.376221,115.746017 
	C662.177429,113.457962 668.520569,113.853813 673.014954,108.984497 
	C673.000549,108.996071 672.970215,109.018105 672.970215,109.018105 
	C674.273376,109.093330 675.621521,108.988541 676.865967,109.299072 
	C677.916504,109.561218 679.270508,109.972778 679.212769,111.459396 
	C679.159546,112.831505 678.076538,113.333000 676.875000,113.644028 
	C672.827698,114.691620 668.329346,115.070747 668.971252,121.287727 
	C669.140747,122.929596 667.246948,124.539230 665.365601,124.991020 
	C657.893372,126.785507 650.390930,128.454681 642.458130,129.697311 
	C642.442261,128.767380 642.785950,128.146164 643.309265,127.884735 
	C644.778992,127.150627 646.765320,126.752083 645.662170,124.436066 
	C644.681946,122.378075 643.058594,122.943932 641.428467,123.696617 
	C640.234375,124.248009 638.974365,124.948593 637.717346,125.006134 
	C635.640869,125.101196 633.115967,127.518120 631.164124,124.138680 
	C634.230103,121.765503 638.400940,122.221413 641.832275,118.625763 
	C635.785583,121.189011 629.946594,120.835091 624.764709,124.677139 
	C631.054504,126.601372 636.543823,128.280716 642.033142,129.960052 
	C645.132385,131.400421 648.096680,133.807510 651.699158,130.998795 
	C652.587341,130.306335 653.593079,130.856934 654.494324,131.364655 
	C655.560852,131.965485 657.152283,132.414032 657.810852,131.639771 
	C662.181458,126.501167 670.099792,130.124100 674.422546,124.657127 
	C675.907837,122.778633 684.497559,124.269028 686.115356,126.621651 
	C681.764526,128.187027 677.535095,129.708710 673.610229,131.120834 
	C672.390808,132.606842 673.600647,133.584259 673.664124,134.660309 
	C673.812073,137.168976 671.851562,139.245758 670.207947,137.541641 
	C666.327454,133.518372 662.647034,135.801102 658.298157,136.648972 
	C661.720581,139.313614 667.120911,138.051575 668.989502,142.724014 
	C666.786316,145.134628 664.615601,143.568741 662.964417,142.679901 
	C649.849915,135.620300 635.696045,131.406647 621.513733,127.272690 
	C618.178467,126.300491 614.691040,125.863831 611.311768,125.026802 
	C603.656067,123.130600 596.024170,121.138504 588.627136,119.247902 
	C588.453674,112.821640 592.131104,110.408928 596.663818,108.535316 
	C599.206055,107.484482 601.800720,106.574059 602.032593,102.824211 
	C602.178223,100.469482 604.641663,100.395821 606.348999,101.543022 
	C608.718323,103.134964 610.449707,102.249763 612.739380,101.178596 
	C619.510681,98.010902 626.489258,95.285789 633.391663,92.399368 
	C634.003662,92.143456 635.043701,92.146530 635.223694,91.737984 
	C637.545898,86.468163 642.017944,87.837898 646.383118,87.186836 
	C651.119690,86.480400 655.708130,84.356621 660.638489,83.348404 
	C668.039795,81.834892 675.075256,78.532433 682.440796,75.928978 
	C682.289001,73.823738 679.204651,74.521019 679.434387,72.507805 
	C679.312988,70.134430 682.385559,71.346542 682.905701,68.955017 
	C677.510620,69.648804 672.325806,71.082901 667.727112,72.873787 
	C662.711914,74.826866 657.521240,76.788048 652.475342,78.327232 
	C647.799561,79.753540 644.590088,84.053680 640.683350,84.480156 
	C636.292358,84.959488 632.361633,86.085487 628.344788,87.466904 
	C627.728455,87.678871 627.182678,88.095932 626.633545,88.401810 
	C625.762024,89.782593 628.569031,91.011932 626.670044,92.383224 
	C625.184692,93.455826 623.959778,93.235100 622.650330,92.084610 
	C621.211792,90.820839 619.818726,91.812294 618.474609,92.392006 
	C605.915527,97.808739 593.521240,103.738487 581.419922,109.945236 
	C574.403503,113.543983 569.122314,112.332039 562.565979,111.429451 
	C553.940186,110.241959 545.744141,105.910553 536.681091,107.769882 
	C533.682556,108.385040 532.251648,105.213562 529.818237,104.483093 
	C523.795532,102.675179 517.758301,100.883263 511.651428,99.394455 
	C498.306366,96.141052 484.725922,94.026436 471.012299,94.029053 
	C464.429443,94.030312 458.654785,91.845657 451.658875,90.776276 
	C455.300354,86.954201 459.167511,88.821350 461.959839,88.339569 
	C466.573700,79.813133 472.089691,72.395874 477.702850,65.106918 
	C479.906281,62.245708 481.398163,57.879482 486.456329,58.148815 
	C487.086395,58.182358 488.393921,56.434662 488.397797,55.508179 
	C488.422760,49.557259 493.544800,47.007874 496.473267,43.028542 
	C497.520111,41.606030 499.152679,40.803341 500.750427,42.403717 
	C502.067230,43.722691 502.211212,45.310295 501.223969,46.973282 
	C500.196014,48.704933 497.533752,49.870125 499.005096,52.513206 
	C500.714905,55.584602 502.737030,58.457554 505.732941,60.436287 
	C507.447998,61.569027 508.743713,60.692860 510.136993,59.484409 
	C512.376587,57.541962 514.833923,55.850601 517.216125,54.040340 
	C521.066833,56.312733 520.253723,58.731991 517.760132,60.912193 
	C514.920044,63.395340 515.768555,65.280739 518.132385,67.411057 
	C520.526855,69.569031 523.535767,70.593353 526.245117,72.159615 
	C528.072693,73.216148 529.427979,71.878174 530.579590,70.663589 
	C532.432922,68.708931 534.523315,67.085327 536.837708,65.733101 
	C537.743652,65.203827 538.709717,64.839134 539.539307,65.784592 
	C540.370667,66.732140 539.929016,67.681602 539.212219,68.445221 
	C537.502136,70.267006 535.760010,72.060783 533.981506,73.815880 
	C527.711914,80.002907 521.933289,86.591537 516.867737,94.179039 
	C518.944336,94.894211 519.358154,97.139229 520.963501,97.795959 
	C522.895996,98.586502 525.283447,99.576691 527.095886,97.747948 
	C537.035217,87.719048 549.028442,80.109917 559.323608,70.445038 
	C558.659241,68.831413 557.206360,68.361908 555.942444,67.398743 
	C554.166382,71.794472 551.440674,75.033333 546.667542,76.000793 
	C546.347473,76.065666 545.932739,76.088257 545.740112,76.295769 
	C539.695068,82.807816 530.612976,85.935722 525.987366,94.034279 
	C525.153992,95.493347 523.811646,96.461189 522.317688,95.187698 
	C520.754822,93.855484 521.911194,92.579895 522.942383,91.371399 
	C525.557373,88.306717 529.924011,86.606094 530.401917,81.866714 
	C538.150391,78.810944 542.277771,71.189499 549.162842,66.992180 
	C552.108093,65.196663 554.753540,62.837315 557.306458,60.485847 
	C562.043945,56.122131 568.949341,58.764210 573.493225,54.494381 
	C575.955017,57.746189 572.643677,59.029400 572.164856,60.978191 
	C573.841248,61.882519 575.346741,61.116966 576.045349,60.330460 
	C580.314148,55.524757 586.847229,55.429619 591.956177,52.406254 
	C594.970581,50.622349 598.443848,52.027069 601.687805,51.863819 
	C604.066589,51.744106 601.654480,54.386658 603.098145,55.838276 
	C611.307190,54.525822 619.271362,49.970692 628.261047,51.105236 
	C630.086914,52.737869 628.269653,54.459911 628.254211,56.143787 
	C629.185608,57.102417 630.344727,56.765930 630.992554,56.156677 
	C638.125854,49.447750 646.325134,54.189301 654.035217,54.014622 
	C655.868774,53.973083 656.659241,55.488079 655.239685,57.147564 
	C653.223022,59.505013 642.274658,61.843365 638.905579,60.601543 
	C636.223450,64.168724 633.304626,67.622787 627.953308,65.960136 
	C627.692139,65.878990 627.133301,66.010437 627.056091,66.190163 
	C624.374390,72.435570 619.124634,68.211029 615.161133,69.182693 
	C609.916565,70.468414 605.551697,73.650780 601.219543,76.669220 
	C596.859314,79.707253 592.207031,82.157173 587.572571,84.691757 
	C585.621765,85.758614 582.632629,85.387062 582.263245,88.971031 
	C582.085754,90.692757 580.389709,88.077499 579.846680,88.552727 
	C577.541260,90.094276 580.459045,91.694588 578.551331,93.183228 
	C572.497681,91.308838 568.615173,95.200623 564.669434,99.499809 
	C555.664062,96.922432 555.664062,96.922432 561.152283,91.370071 
	C565.228699,93.448082 568.173157,92.229218 571.022583,89.607590 
	C569.973450,87.600624 570.387939,84.910927 567.577148,83.521019 
	C566.950439,87.434212 563.412720,88.679405 560.991760,90.982140 
	C557.832092,90.532562 555.477051,89.890396 553.996399,94.591721 
	C552.929993,97.977448 547.210266,98.897964 544.959961,102.822060 
	C550.437317,106.772827 553.858887,98.931999 558.819458,100.000359 
	C558.884521,103.020561 555.666870,102.947250 555.408508,105.099319 
	C560.711670,108.926857 562.227478,108.811752 568.930237,104.059860 
	C567.514160,98.104912 568.180603,97.438828 574.615662,98.554070 
	C576.015259,98.796623 577.257996,98.607140 578.422241,97.834854 
	C581.329407,95.906487 584.185669,93.896950 587.560547,92.806541 
	C588.529724,92.493408 589.674316,91.862892 589.547668,90.814125 
	C588.902344,85.470299 591.378479,86.027435 595.147522,87.281250 
	C599.015442,88.567940 601.413818,85.944191 602.226562,80.257851 
	C605.081177,78.022972 606.683533,83.990295 609.715759,81.400307 
	C611.654236,79.744576 613.648254,77.679268 617.095154,79.221664 
	C615.198792,83.413712 610.867981,84.099419 607.809753,86.233414 
	C603.759033,89.060005 599.209290,91.175514 594.852112,93.556656 
	C593.291443,94.409561 592.491699,95.640701 591.936401,97.359245 
	C591.164307,99.749054 588.640991,99.979469 586.632751,100.518547 
	C584.776367,101.016853 585.869507,98.722046 584.514404,97.927727 
	C583.650269,106.928909 573.081665,101.784004 570.118835,108.436638 
	C572.403870,110.709084 574.692383,109.163162 576.522400,107.812508 
	C579.147522,105.875015 581.812256,104.712074 585.117371,104.371124 
	C588.858948,103.985146 591.489563,100.926414 594.737610,99.329475 
	C603.822815,94.862694 613.048401,90.681557 622.345886,86.328072 
	C622.700623,85.148148 620.200928,83.964600 622.193726,82.652390 
	C623.620178,81.713058 625.019836,81.330139 626.095642,82.923439 
	C627.171021,84.516144 628.571472,84.054802 629.584839,83.394615 
	C632.860718,81.260612 636.883423,80.884872 640.130066,79.027290 
	C646.858948,75.177353 654.019653,72.824394 661.486267,71.096260 
	C663.232300,70.692146 664.927063,69.916428 666.541931,68.248199 
	C662.346375,68.043968 662.280518,66.134590 665.298401,62.814980 
	C658.422852,63.832031 652.668701,63.312828 648.363037,69.355103 
	C645.771912,72.991356 639.739502,72.223061 635.729614,74.696129 
	C631.385559,77.375305 625.979797,76.288734 621.394714,78.716034 
	C618.901978,80.035690 616.978516,77.542175 615.427490,74.966019 
	C615.974976,74.615349 616.381165,74.128151 616.787415,74.128036 
	C628.761230,74.124664 637.939819,66.617462 648.374207,62.477600 
	C653.654907,60.382484 659.082703,58.561966 664.581726,57.156155 
	C667.114319,56.508709 669.483337,58.910191 671.699646,59.911545 
	C678.396851,62.937416 686.144043,63.979912 691.619751,69.705742 
	C691.883301,71.404495 689.803528,71.703407 688.636353,74.303551 
	C694.800354,70.572235 699.375916,72.232925 703.298035,76.387306 
	C704.207581,77.350708 704.081177,77.470039 701.796143,81.562317 
	C706.707581,78.639000 708.972900,81.218567 712.342529,83.932663 
	C718.584534,88.960350 721.838379,96.668686 728.746948,100.889847 
	C729.358215,101.263321 729.763000,102.271156 729.913879,103.051941 
	C730.702087,107.131226 732.873535,110.206818 736.121826,112.758713 
	C737.531311,113.866013 738.614441,115.670906 737.841187,117.630966 
	C737.085632,119.546280 735.232361,120.521614 733.361328,119.972504 
	C726.197998,117.870163 719.608154,121.388634 712.726562,121.935814 
	C709.230042,122.213829 705.395569,122.181808 702.207764,124.459694 
	C701.215515,125.168739 699.866577,125.010254 699.150879,123.793518 
	C698.326233,122.391518 699.502380,121.786308 700.408691,121.012955 
	C705.070251,117.035408 710.852722,115.636505 716.565369,113.937141 
	C708.520325,114.376266 700.368958,113.656929 692.815979,117.095657 
	C689.559204,118.578384 686.169189,118.665993 682.708374,118.792305 
	C681.054993,118.852646 680.166199,118.243996 679.690491,116.850082 
	C679.260193,115.589172 679.851868,114.578865 680.775635,113.751305 
	C681.806763,112.827614 682.973267,111.838776 684.140991,113.390396 
	C685.718506,115.486717 687.368286,114.225914 689.193481,113.752701 
	C688.233887,112.674011 685.929199,113.861496 685.899109,111.700111 
	C685.882019,110.476822 686.833862,109.978470 687.851196,109.802208 
	C695.665283,108.448456 702.751892,104.828705 710.292969,102.621231 
	C713.512634,101.678757 716.480286,101.532158 719.768799,103.650139 
	C718.848999,101.608910 717.929199,99.567688 717.075684,97.673584 
	C714.100830,97.107964 714.724670,100.399361 712.941284,100.878975 
	C704.675476,97.838203 697.097290,101.170250 689.461670,103.537109 
	C686.362976,104.497643 683.403992,105.821487 678.761536,105.436386 
	C684.844604,99.378403 693.123230,100.383736 699.404846,95.396454 
	C695.765137,94.155418 693.343323,94.306206 690.961365,95.660522 
	C687.571655,97.587761 683.667664,97.866013 680.021484,98.956467 
	C677.654114,99.664467 675.432434,99.185997 677.309448,95.351318 
	C683.902222,94.805122 689.201355,91.696121 695.097107,90.810608 
	C694.444580,88.624130 693.641174,87.781395 691.256592,87.863411 
	C688.112549,87.971550 685.773438,90.341949 682.696289,90.169846 
	C679.262634,89.977783 677.416443,91.644699 677.002441,95.003952 
	C674.171204,95.868141 671.514160,97.379753 668.336975,95.549080 
	C667.018311,94.789276 667.546509,96.759346 666.721680,97.736282 
	C660.665710,96.018539 657.001343,100.818855 652.186462,101.582565 
	C657.228821,100.753822 662.868958,102.147530 666.997314,97.988457 
M496.096130,75.870392 
	C497.030823,74.307167 498.566528,74.296806 500.177856,74.782745 
	C498.270020,69.452278 504.179291,68.454681 504.921265,64.352547 
	C501.312561,61.943188 497.739716,59.090961 495.813263,53.899761 
	C485.086609,65.208176 478.580811,78.408783 468.115387,90.291603 
	C475.070496,89.755760 480.397308,90.343620 485.706451,91.447441 
	C488.507538,92.029831 491.576813,88.339050 490.214355,85.821007 
	C488.974365,83.529190 490.070618,82.360123 491.190094,81.026741 
	C492.572144,79.380630 494.187500,77.930389 496.096130,75.870392 
M681.613464,82.000549 
	C680.131653,82.134666 678.798523,81.136574 677.210083,81.661728 
	C663.227661,86.284515 648.751343,89.415962 635.303467,95.661606 
	C632.906555,96.774841 630.276489,97.380722 627.858215,98.455376 
	C626.285522,99.154274 623.884094,99.799088 624.652161,102.155174 
	C625.392273,104.425705 627.632080,103.277390 628.999878,102.825500 
	C634.353210,101.056862 639.594727,98.953110 644.919128,97.092285 
	C648.138733,95.967094 651.867310,95.868149 653.423889,91.903229 
	C653.761841,91.042374 655.276611,90.488083 656.056030,91.168358 
	C661.305969,95.750206 665.903015,91.541420 670.743164,90.279388 
	C679.492859,87.997902 687.529114,82.505623 697.225037,84.623650 
	C697.230408,82.622169 696.311646,81.985840 694.724609,81.229927 
	C690.391968,79.166283 686.486694,81.597809 681.613464,82.000549 
M511.700500,88.238365 
	C516.383606,84.775490 519.207031,79.203476 525.377808,76.766083 
	C522.606018,73.417412 517.928162,73.989357 515.673157,70.661232 
	C513.463867,67.400604 511.162750,68.212151 508.966400,70.994301 
	C505.380096,75.537056 502.009125,80.235779 497.965454,84.442368 
	C496.064758,86.419601 494.240509,88.987862 494.084747,92.378334 
	C500.403595,93.070473 506.848633,96.036743 511.700500,88.238365 
M597.048889,74.726082 
	C598.620972,73.902466 600.278442,73.499001 599.743469,70.812798 
	C599.237610,68.272568 601.952393,66.946304 603.612366,67.528458 
	C610.995789,70.117889 615.294983,64.338669 620.697205,61.694988 
	C623.029236,60.553806 622.249573,58.855877 620.715393,57.470066 
	C618.740295,57.841400 617.638733,61.196117 615.447937,58.820534 
	C613.427734,56.629868 611.592346,57.587341 609.669922,58.671597 
	C604.760498,61.440475 599.681091,63.964737 595.024353,67.111732 
	C587.677490,72.076721 578.024841,72.974541 572.090027,80.427460 
	C572.054993,84.536606 575.660034,84.375053 578.118958,84.477379 
	C580.653748,84.582863 582.685425,82.875946 582.745728,79.745384 
	C582.781677,77.879242 584.179199,75.811050 585.752808,76.963097 
	C590.297302,80.290222 593.082764,76.643555 597.048889,74.726082 
M571.847290,72.512215 
	C570.967957,69.519897 573.024475,69.546349 574.932739,69.627151 
	C576.227539,69.681984 577.770813,70.591362 578.756775,70.141212 
	C586.039185,66.816368 593.756775,64.332848 600.463562,59.723972 
	C598.257202,57.064346 596.055847,57.242805 593.609802,58.742760 
	C592.092896,59.672905 590.525330,61.103336 588.569336,60.123089 
	C584.255310,57.961113 582.297363,59.735325 582.060364,63.533321 
	C567.836060,65.656914 559.887695,76.195610 550.519348,84.898956 
	C551.054138,86.994843 552.449402,88.384232 554.733398,86.881226 
	C560.555725,83.049896 566.221619,78.979195 571.891479,74.922310 
	C572.222839,74.685196 572.034058,73.721100 571.847290,72.512215 
M627.658325,115.237617 
	C625.539795,116.190765 623.454956,117.231186 621.291260,118.067589 
	C619.748230,118.664078 617.690857,120.506500 616.669189,117.865532 
	C615.843811,115.732178 618.222900,115.413620 619.665222,114.729973 
	C623.214905,113.047462 627.120239,111.975410 629.783936,108.762482 
	C630.437988,107.973656 631.403259,107.360565 632.433899,107.867256 
	C636.339294,109.787262 639.359558,106.391769 642.928101,106.157829 
	C644.574341,106.049904 646.186646,104.654823 645.342346,102.606590 
	C644.490417,100.539978 642.842224,101.825386 641.488892,102.193512 
	C635.254578,103.889320 629.454163,106.774361 623.333008,108.831696 
	C616.901306,110.993416 610.744995,114.186905 604.780396,118.218506 
	C606.711609,119.962364 607.534302,119.233826 608.805603,117.997375 
	C611.287659,115.583336 613.503540,116.506065 614.233154,119.630524 
	C615.143555,123.529343 617.742798,123.577187 620.431396,122.563713 
	C626.163818,120.402847 631.751221,117.856888 637.397034,115.466370 
	C638.901978,114.829147 640.048645,114.003044 638.867065,111.536858 
	C635.285217,112.154152 631.745911,113.257156 627.658325,115.237617 
M540.593201,90.106194 
	C539.340454,92.277809 534.523865,93.229813 537.073425,96.530357 
	C539.538452,99.721512 541.958374,95.822418 544.268188,94.795029 
	C545.911804,94.063972 548.442627,93.319016 546.799255,90.556007 
	C545.346985,88.114334 543.390625,87.575569 540.593201,90.106194 
M643.977722,113.127090 
	C644.602051,117.908798 644.602051,117.908798 648.662842,117.089340 
	C645.673828,113.639084 646.433411,111.530464 651.187622,109.994469 
	C653.197510,109.345116 656.042603,110.110168 656.752441,106.579300 
	C652.712708,106.038017 649.230225,107.422920 645.759399,108.753654 
	C644.127747,109.379272 643.606079,110.706932 643.977722,113.127090 
M596.311707,115.017601 
	C599.540894,116.993790 606.757202,112.948265 607.285889,107.844345 
	C602.178528,110.842606 596.454895,111.070145 591.995422,115.133026 
	C593.569214,116.118797 594.632751,115.609390 596.311707,115.017601 
M660.396057,118.538383 
	C656.869263,119.648476 652.710449,118.923653 649.551208,122.567039 
	C652.414307,125.750389 655.864075,122.815483 658.792847,123.131721 
	C661.120361,123.383049 664.387390,121.940796 663.972046,117.704773 
	C662.936829,117.924820 662.010376,118.121758 660.396057,118.538383 
M704.278931,95.322823 
	C708.390198,95.803009 712.176270,95.701431 713.057068,90.424469 
	C710.990540,90.725571 708.924438,91.108902 706.840759,91.307724 
	C704.630798,91.518600 703.420715,92.374802 704.278931,95.322823 
M612.983337,105.956184 
	C612.570190,108.581024 614.260010,108.672913 615.986328,108.216072 
	C619.048889,107.405663 621.330444,105.820290 620.692261,101.753525 
	C617.959106,102.577354 615.536377,103.745636 612.983337,105.956184 
M718.476868,107.848747 
	C713.668579,106.747856 709.260071,108.126686 704.934753,110.079521 
	C709.580017,111.060669 713.726807,108.182526 718.476868,107.848747 
z"/>
<path fill="#000000" opacity="1.000000" stroke="none" 
	d="
M946.687744,163.340073 
	C939.177063,163.027222 932.448730,166.179642 925.432861,168.084824 
	C923.393738,168.638565 921.047119,170.299591 919.101379,167.224747 
	C921.095276,164.832535 924.054260,164.685089 926.586304,163.835159 
	C930.509949,162.518112 934.546082,161.535507 938.536377,160.417877 
	C938.848633,160.330399 939.457520,160.287689 939.456055,160.238358 
	C939.273010,154.140930 944.485596,156.738525 947.531372,155.386749 
	C946.020691,152.366043 943.627625,152.525848 941.184082,153.322754 
	C930.771484,156.718582 920.372437,160.156784 909.996643,163.663071 
	C908.202393,164.269455 906.558350,164.666443 904.121338,163.352448 
	C907.755920,159.497253 912.569153,158.998367 916.650391,157.429810 
	C923.430969,154.823792 930.435486,152.735504 937.456787,150.840820 
	C943.210388,149.288193 947.383301,144.309677 953.618896,143.811737 
	C941.495239,142.843414 930.912964,148.919769 918.485535,151.997345 
	C921.488770,145.980789 927.205017,146.823471 930.919067,143.376205 
	C923.376099,144.016556 917.033569,146.952454 910.939209,149.834518 
	C902.539368,153.806854 893.875488,157.119385 885.457153,161.011200 
	C884.133240,161.623276 882.102905,161.763077 882.184631,160.278168 
	C882.415100,156.087753 879.278748,158.543396 877.394104,157.629837 
	C877.974792,152.905853 883.597717,155.519455 884.872009,152.400742 
	C861.574097,156.487823 838.011047,158.010773 814.290344,157.341080 
	C796.701355,156.844513 779.137451,157.772156 761.563232,158.271835 
	C748.920288,158.631332 736.413757,156.723419 723.916931,155.038818 
	C722.970398,154.911224 722.076355,154.394363 720.567200,153.842422 
	C722.647339,152.179703 724.305664,150.895828 726.547607,151.858673 
	C733.620605,154.896393 740.841492,154.031586 748.080872,152.862579 
	C755.022400,151.741653 761.932556,153.208786 768.863770,153.027237 
	C776.799438,152.819366 784.740906,152.561218 792.675659,152.660416 
	C801.044739,152.765030 809.528564,154.295593 817.745850,153.340622 
	C828.815857,152.054123 840.053223,154.269974 850.961792,151.222137 
	C854.012146,150.369888 857.103455,149.703934 860.234558,151.164810 
	C860.918579,151.483963 861.889160,151.404587 862.678040,151.251816 
	C880.143188,147.869003 897.501770,143.746536 915.091797,141.256424 
	C929.639038,139.197067 943.755493,135.588074 958.049744,132.552002 
	C968.719604,130.285736 979.679382,129.384201 990.510681,127.879143 
	C992.184937,127.646492 993.376526,128.539917 994.445679,129.647522 
	C996.074402,131.334671 997.742554,132.925293 1000.064270,133.677887 
	C1001.224792,134.054077 1002.153259,134.973846 1002.340820,136.158615 
	C1003.403442,142.872574 1007.555298,148.390442 1009.477051,154.615311 
	C1010.487793,157.889343 1010.594543,162.034058 1010.846924,165.774155 
	C1011.005554,168.126511 1007.457031,167.023254 1005.973206,168.394806 
	C1006.945374,169.403198 1008.065735,168.779449 1009.098083,168.647400 
	C1011.584351,168.329376 1014.922058,166.984726 1012.657166,171.875763 
	C1012.588074,172.025024 1012.430176,172.239334 1012.480469,172.322571 
	C1017.779358,181.097336 1010.106506,177.015640 1007.320923,177.385178 
	C1003.564636,177.883514 999.713257,176.965332 995.956665,178.307312 
	C993.755493,179.093674 991.864624,177.999802 990.353333,176.496292 
	C990.941406,173.964508 993.479004,175.454193 994.621643,173.818512 
	C992.812866,172.922333 989.609131,175.551407 989.088989,171.660309 
	C990.216064,169.718140 992.473694,171.115128 993.985046,170.165665 
	C995.276917,169.354019 996.840637,168.672440 996.404602,166.833069 
	C995.919006,164.784256 994.091003,165.430145 992.664307,165.375992 
	C990.681213,165.300751 987.729675,168.779251 986.957764,165.014969 
	C986.283936,161.728668 990.450317,162.490768 992.476196,161.458588 
	C992.905029,161.240143 993.303711,160.962662 994.602844,160.174454 
	C990.997192,158.409531 987.177979,157.579910 985.790344,153.704269 
	C985.469238,152.807526 983.689270,153.568771 982.549988,153.841217 
	C976.587280,155.267044 970.595093,156.569839 964.631897,157.993713 
	C962.222290,158.569061 960.126465,158.670166 959.065186,154.699860 
	C958.108337,157.915390 957.322510,160.264175 953.958008,160.953217 
	C951.127747,161.796188 948.679138,161.836853 946.687744,163.340073 
M970.275208,149.318329 
	C969.508850,149.938309 968.492310,150.591492 969.265930,151.700211 
	C970.164124,152.987427 971.660889,152.842178 972.862915,152.347580 
	C974.738953,151.575729 977.025940,150.882202 976.064819,147.552155 
	C974.236267,148.047287 972.529480,148.509430 970.275208,149.318329 
M981.542725,139.335022 
	C982.167908,138.511154 981.850952,137.217087 981.174988,137.410263 
	C977.159912,138.557816 972.891052,139.132874 969.451416,141.787918 
	C973.304077,141.079086 977.156677,140.370255 981.542725,139.335022 
z"/>
<path fill="#000000" opacity="1.000000" stroke="none" 
	d="
M911.966125,229.020615 
	C918.788513,228.001892 925.329895,229.565979 931.551208,231.936310 
	C943.873596,236.631134 956.728516,239.081940 969.525879,241.854034 
	C972.075134,242.406219 973.532898,240.905823 975.378906,238.904327 
	C976.801819,243.400085 980.813538,243.716324 984.154968,245.109024 
	C985.970764,245.865829 988.570435,246.061310 989.411987,244.941208 
	C993.624756,239.333832 999.312317,242.673508 1004.294250,241.968430 
	C1004.899963,241.882706 1005.501404,241.767212 1006.776428,241.552353 
	C1000.534241,238.524445 993.827332,241.996704 988.490479,238.181412 
	C988.051880,237.867935 987.963562,237.064651 987.143494,235.184174 
	C995.412781,236.091080 1002.918579,237.427505 1010.458984,236.145782 
	C992.826599,234.181229 975.066284,233.305054 957.431702,229.523590 
	C958.219543,226.544052 960.133728,226.470993 962.168762,226.979538 
	C963.648376,227.349289 965.727783,228.196121 966.360413,226.856567 
	C969.764648,219.648422 975.428467,225.480942 979.834106,224.331223 
	C980.897339,224.053772 982.163574,224.942978 982.326050,226.314819 
	C982.797058,230.291718 985.569031,229.730896 988.317749,229.673767 
	C988.158447,227.861954 986.856384,228.510223 986.074341,228.270523 
	C985.007996,227.943619 984.259094,227.358810 984.307007,226.200912 
	C984.357483,224.982483 985.373840,224.322281 986.335388,224.392441 
	C992.419983,224.836395 996.883484,218.553467 1003.359680,220.558838 
	C979.176331,216.869858 954.436218,218.703003 929.884949,212.181519 
	C931.853088,209.432159 935.111389,208.550919 933.828552,205.175461 
	C933.395630,204.036316 934.712463,203.119339 936.082153,203.161041 
	C937.506409,203.204361 938.264771,204.105148 938.139709,205.435822 
	C938.018494,206.726624 937.556763,207.985428 937.172180,209.553391 
	C950.329468,214.981979 962.794678,211.113800 975.636902,207.109695 
	C980.800171,215.067291 988.948975,209.265671 995.749573,210.722473 
	C996.655701,210.916595 996.716553,210.632553 998.531189,208.533188 
	C996.736206,206.416672 993.190308,208.139481 991.593262,205.454376 
	C993.114197,202.678192 995.909119,204.710754 998.185181,203.564713 
	C993.974426,202.016891 989.812073,202.504791 985.794556,202.432602 
	C973.633667,202.214066 961.466675,202.282547 949.302429,202.327469 
	C943.986755,202.347092 938.787598,200.737686 933.416138,201.409103 
	C931.590027,201.637360 930.172363,200.711182 930.330444,198.044098 
	C934.768311,196.288513 939.290833,197.529480 943.842468,198.002014 
	C951.082520,198.753632 958.315491,199.542007 965.528381,197.254196 
	C967.622986,196.589813 968.694336,195.934341 968.817566,193.725067 
	C968.913269,192.008301 970.071411,190.563278 971.747498,191.319107 
	C974.531494,192.574631 971.479370,193.872192 971.312012,195.406464 
	C973.701172,196.702179 975.611450,197.352829 976.012146,193.493057 
	C976.199768,191.685928 977.836609,190.998367 979.294128,190.958527 
	C985.211731,190.796722 991.130859,191.741867 997.062683,190.927368 
	C997.918640,190.809814 998.530090,191.581970 998.777588,193.513733 
	C993.910767,195.380051 988.599243,193.780701 983.715759,194.505646 
	C990.127686,195.927780 996.729675,195.349075 1003.944580,194.858734 
	C1001.079407,193.797592 1000.293335,192.329971 1002.594421,190.497421 
	C1002.398315,188.581238 999.679443,189.311264 999.656555,187.209213 
	C1001.573303,184.732849 1004.649780,186.783203 1006.930176,185.139282 
	C993.266357,183.759689 979.623901,184.338699 965.972229,186.140549 
	C974.716919,188.366409 984.022888,184.606567 993.265503,187.634094 
	C991.369385,190.872528 989.180054,190.103180 987.341858,190.124817 
	C980.346008,190.207153 973.348694,190.157867 966.351929,190.166351 
	C963.636169,190.169647 961.079834,190.423019 959.203369,192.870544 
	C957.270142,195.392044 954.327698,190.922638 952.647949,194.007233 
	C950.368591,191.785812 953.598999,190.572510 953.091064,188.749008 
	C942.331787,185.990051 931.560486,188.706848 921.021057,188.873093 
	C920.623779,186.573685 921.629211,186.241959 922.611450,186.056107 
	C930.403137,184.581818 938.048035,182.692719 946.215271,183.497101 
	C952.084961,184.075226 958.127502,183.006424 964.081726,182.531219 
	C965.334961,182.431198 967.251404,181.924973 967.011841,180.396866 
	C966.399597,176.490326 969.473083,176.902664 971.430542,176.486267 
	C974.987610,175.729599 978.639038,175.374146 982.267395,175.015701 
	C983.828796,174.861420 986.003357,174.407578 986.189819,176.820831 
	C986.350525,178.900040 984.358582,178.772446 982.918457,179.008881 
	C980.182861,179.458069 977.447083,179.906036 974.759705,180.675735 
	C980.250916,180.675735 985.751648,180.880173 991.230957,180.624283 
	C998.168335,180.300278 1005.204163,181.789841 1012.053040,179.486206 
	C1013.333679,179.055481 1014.803772,179.418610 1015.535828,180.782883 
	C1016.424622,182.439575 1015.747620,183.644363 1013.642395,184.632034 
	C1016.156494,185.942230 1016.839661,187.702332 1016.811218,190.506042 
	C1016.682617,203.193130 1017.271057,215.887939 1017.117493,228.574112 
	C1017.060059,233.318710 1018.527405,238.820374 1013.288269,242.362503 
	C1012.416992,242.951569 1013.823730,244.629501 1012.473755,245.875824 
	C1007.686584,246.979095 1002.504578,245.398071 997.354004,246.786194 
	C1000.104187,246.786194 1002.879700,246.556808 1005.596863,246.856323 
	C1007.911804,247.111511 1010.699463,247.870712 1009.996338,251.014313 
	C1009.364990,253.837418 1006.900085,252.617096 1004.999268,252.282288 
	C992.109314,250.011932 979.216370,247.758728 966.345154,245.503601 
	C964.804504,246.934296 965.084534,250.299347 961.862183,249.312576 
	C959.030396,248.445389 961.187988,246.172134 960.534119,244.470749 
	C953.594238,242.769775 946.546448,241.633774 939.767334,238.424652 
	C935.224426,236.274124 929.141113,236.146561 923.692200,235.425980 
	C919.785645,234.909378 915.003174,233.606995 912.110229,229.322418 
	C911.996338,228.997314 911.966125,229.020615 911.966125,229.020615 
M1011.725830,226.062866 
	C1008.387817,223.863495 1004.643127,226.032318 1001.206116,225.095367 
	C996.971680,223.941025 995.614136,226.114487 995.164978,229.802780 
	C998.969910,231.939880 1002.908081,230.370865 1006.596741,231.153442 
	C1009.954224,231.865799 1011.979492,230.408737 1011.725830,226.062866 
z"/>
<path fill="#000000" opacity="1.000000" stroke="none" 
	d="
M919.729736,240.265594 
	C937.582581,245.913269 954.714661,252.645950 972.798889,256.203217 
	C977.029785,257.035431 981.225220,258.082581 985.482422,258.734406 
	C988.577820,259.208374 991.795837,259.626160 994.315125,256.800842 
	C995.399231,255.585098 997.086975,255.505096 998.533752,255.931381 
	C1000.617798,256.545441 1002.355774,256.779572 1003.750916,254.619446 
	C1004.493652,253.469437 1005.829407,253.530975 1006.889893,254.185928 
	C1008.139221,254.957443 1007.689575,255.970932 1007.261719,257.204590 
	C1004.970459,263.810852 1003.707397,271.574219 995.573853,273.353943 
	C988.311646,274.942932 981.269165,277.622833 973.171082,275.732269 
	C966.791199,274.242859 959.751099,275.959106 952.953247,275.307892 
	C948.669861,274.897552 944.452820,275.349365 940.367737,273.163544 
	C938.420227,272.121552 935.581360,271.674713 933.657410,274.146118 
	C932.815308,275.227783 931.118164,275.722168 930.773804,274.559082 
	C928.996521,268.556000 923.237732,269.118896 919.450195,268.821381 
	C909.481445,268.038422 900.046753,264.527832 890.115295,263.979218 
	C880.702820,263.459259 872.197937,259.569855 863.349304,256.936493 
	C859.021545,255.648514 858.905212,251.797104 858.560669,248.591232 
	C858.349060,246.621872 861.165894,246.103302 862.898682,246.264114 
	C864.978210,246.457123 867.716858,247.104538 867.135986,250.004730 
	C866.268311,254.337173 870.516174,254.552277 871.561890,254.024063 
	C876.753845,251.401505 880.574402,255.161499 884.951660,256.102020 
	C886.357117,256.403992 887.316406,257.927521 889.395569,257.687256 
	C887.703308,255.306747 881.701111,254.367996 887.113098,250.341049 
	C884.714111,248.225327 882.219238,247.421967 879.487671,246.634598 
	C878.585754,248.307724 877.944824,250.566055 875.251587,249.343765 
	C874.175598,248.855453 873.471008,247.716156 874.135376,246.984299 
	C875.708069,245.251770 876.562073,242.502090 879.562744,242.475372 
	C880.211426,242.469589 880.860779,242.543488 881.446411,242.577042 
	C882.873901,240.453995 880.534119,238.257599 881.965515,236.098175 
	C885.168579,237.059143 888.381653,238.023132 891.291992,238.896271 
	C894.007812,237.444885 892.867798,235.282867 892.847473,233.215302 
	C896.036438,232.114395 898.654968,232.687424 900.717468,234.916641 
	C901.022888,236.246292 900.420166,236.733063 899.727661,237.270615 
	C896.236450,239.980972 897.450134,242.090988 900.843262,243.348785 
	C911.865723,247.434769 922.811035,251.828232 934.069580,255.139236 
	C940.310791,256.974701 946.034119,260.075836 952.338989,261.563751 
	C956.451904,262.534393 960.376953,264.129211 964.905273,263.028564 
	C967.773560,262.331451 969.360413,266.876953 972.960388,265.992096 
	C972.855652,263.917877 969.143250,263.701935 970.719360,260.445221 
	C967.429688,261.697876 965.141296,262.983826 963.501648,259.194733 
	C962.284729,256.382721 956.544067,256.261200 953.978699,258.600403 
	C952.422119,260.019714 950.679504,259.686554 950.338501,258.208923 
	C948.813538,251.600571 942.541443,252.163834 938.282593,250.520218 
	C929.557800,247.153076 920.309448,245.165466 911.359314,242.347412 
	C908.143250,241.334793 904.860107,239.969040 902.882324,235.916061 
	C909.550110,234.110443 914.289185,237.867477 919.729736,240.265594 
M927.322632,257.255951 
	C918.252258,254.159103 909.055359,251.520538 900.385803,247.191788 
	C896.171631,245.087631 891.768799,241.291458 886.011414,244.602859 
	C901.353516,251.914841 917.325623,257.488831 934.384949,263.576843 
	C933.189026,258.761230 930.738098,257.941101 927.322632,257.255951 
z"/>
<path fill="#000000" opacity="1.000000" stroke="none" 
	d="
M163.161942,182.334503 
	C155.867401,182.401840 155.771225,182.506241 156.142685,189.434372 
	C156.717621,200.157715 161.217239,205.956650 170.726242,208.229034 
	C177.771133,209.912567 183.159592,207.326874 186.323044,200.726105 
	C186.754272,199.826309 187.081970,198.877182 187.505127,197.973129 
	C188.932190,194.924316 191.693863,195.289108 193.969330,196.085052 
	C196.554871,196.989441 195.576645,199.424576 194.958817,201.256454 
	C191.542358,211.386658 179.576660,218.446335 168.128281,217.179169 
	C152.125076,215.407883 139.666000,201.340134 138.894409,184.170761 
	C138.156372,167.748184 149.531769,153.267883 165.469025,150.342651 
	C179.958954,147.683060 193.322617,157.499802 195.296158,172.253204 
	C196.646011,182.344131 196.646011,182.337784 186.633377,182.328552 
	C178.968353,182.321487 171.303284,182.333023 163.161942,182.334503 
M176.907822,174.685287 
	C178.376389,174.344772 180.396622,175.356140 181.006256,172.931610 
	C181.841064,169.611435 178.080109,161.762451 174.366013,159.616882 
	C170.156616,157.185211 166.016998,157.794159 162.236877,160.639160 
	C159.022751,163.058167 157.502380,166.573547 156.567184,170.366684 
	C155.843338,173.302597 156.840607,174.768921 160.056839,174.706848 
	C165.381271,174.604095 170.709305,174.689270 176.907822,174.685287 
z"/>
<path fill="#000000" opacity="1.000000" stroke="none" 
	d="
M710.301392,135.919159 
	C700.114136,137.957596 690.180664,139.453171 680.581909,142.425827 
	C678.163147,143.174896 675.768127,143.479080 673.295166,143.168884 
	C672.710999,138.520279 673.974792,137.651886 680.559448,138.110336 
	C680.347534,133.089188 683.277161,133.192261 687.050842,133.840698 
	C693.804993,135.001282 700.668152,135.971542 705.452515,129.146912 
	C705.971375,128.406784 706.685730,128.056091 707.584778,128.114212 
	C717.728210,128.769897 727.383972,123.739326 739.151672,126.482109 
	C736.090637,123.326180 736.547913,121.492996 739.056580,120.689522 
	C741.712830,119.838821 741.611145,121.808533 742.112000,123.769249 
	C744.480347,133.041046 744.596191,133.057846 734.676392,132.951492 
	C726.535400,132.864212 718.419067,132.837021 710.301392,135.919159 
z"/>
<path fill="#000000" opacity="1.000000" stroke="none" 
	d="
M957.956482,164.030319 
	C962.546570,163.071198 967.485352,163.180939 970.677673,158.594727 
	C971.747986,157.057129 974.280029,155.784988 975.870544,157.777100 
	C977.869568,160.280746 974.638672,160.419800 973.515808,161.509064 
	C973.079468,161.932358 972.835571,162.554001 971.877930,164.088547 
	C978.284668,163.916824 984.875366,162.277710 987.571838,169.726990 
	C981.515320,173.533997 975.842407,168.747223 970.173889,168.632492 
	C967.828369,172.022308 971.360962,172.146729 973.075378,174.163971 
	C967.639648,176.943100 962.285522,177.170349 956.182251,177.363037 
	C958.184143,172.807281 964.620361,176.163071 965.449890,170.375397 
	C951.337341,172.108948 937.948853,175.484894 924.114807,175.461868 
	C924.103271,172.595169 925.942505,173.034286 927.258423,172.577255 
	C936.454651,169.383301 946.156006,169.398087 955.643555,168.086777 
	C958.057800,167.753113 959.684875,167.393188 958.137085,164.251953 
	C957.993103,163.999252 957.956482,164.030319 957.956482,164.030319 
z"/>
<path fill="#000000" opacity="1.000000" stroke="none" 
	d="
M912.008850,228.982971 
	C910.163757,229.542664 908.945496,230.749084 908.097412,232.513000 
	C907.314697,234.140991 905.731323,234.589905 904.346313,233.572891 
	C902.551453,232.254913 903.802063,231.056152 904.944458,229.950958 
	C908.123962,226.875214 911.401367,224.025070 913.845154,220.115067 
	C916.857056,215.296082 925.158997,216.946167 929.571838,223.932434 
	C922.558777,222.562607 916.429504,222.675003 912.123352,228.722595 
	C911.966125,229.020615 911.996338,228.997314 912.008850,228.982971 
z"/>
<path fill="#000000" opacity="1.000000" stroke="none" 
	d="
M959.130127,224.847687 
	C949.336609,234.409607 940.856262,225.511246 931.879150,223.760971 
	C934.939758,221.058212 938.112244,221.683136 941.155457,223.102463 
	C943.776489,224.324890 945.925537,223.926086 948.686584,223.035767 
	C952.047607,221.951981 956.353760,219.788147 959.130127,224.847687 
z"/>
<path fill="#000000" opacity="1.000000" stroke="none" 
	d="
M683.994263,149.862762 
	C681.776245,147.417587 677.481262,150.143799 675.812988,145.117554 
	C687.992371,144.731903 698.547119,150.866531 711.243896,149.997696 
	C706.950684,153.401779 705.222534,154.026245 701.759216,153.410019 
	C695.922546,152.371490 690.116394,151.162033 683.994263,149.862762 
z"/>
<path fill="#000000" opacity="1.000000" stroke="none" 
	d="
M338.012329,57.967979 
	C333.030365,65.426819 331.008301,74.350380 326.298431,81.961655 
	C325.382843,83.441284 325.044556,85.446411 322.814941,85.835312 
	C321.051025,84.539772 322.185913,83.129219 322.739899,81.925529 
	C326.396118,73.981232 330.100647,66.058609 333.868378,58.166618 
	C334.749847,56.320301 335.693359,53.391968 337.926605,57.687210 
	C337.984772,58.011547 338.004730,57.983940 338.012329,57.967979 
z"/>
<path fill="#000000" opacity="1.000000" stroke="none" 
	d="
M711.023682,317.472809 
	C713.383362,317.595886 713.548279,314.684753 715.865417,314.626282 
	C717.612366,317.215881 715.475464,319.301849 714.481689,321.127594 
	C713.368652,323.172272 711.174683,322.034973 709.618774,321.141632 
	C706.578735,319.396210 702.395325,320.148712 699.636841,316.764435 
	C701.779297,315.227081 703.542603,313.828827 705.437195,312.639801 
	C707.318054,311.459381 709.179138,311.787292 711.005798,313.044373 
	C713.424866,314.709076 710.649353,315.979706 711.023682,317.472809 
z"/>
<path fill="#000000" opacity="1.000000" stroke="none" 
	d="
M296.312012,328.775818 
	C300.166534,331.758484 302.538483,336.109253 307.461151,337.207397 
	C308.746490,337.494171 309.692139,338.813782 309.078979,340.352722 
	C308.369751,342.132782 307.070129,341.809540 305.404297,341.525055 
	C300.611481,340.706604 298.279327,337.117310 295.869049,333.626129 
	C295.110931,332.528046 294.538757,331.312836 293.331085,330.693634 
	C291.860229,329.939453 290.855988,329.006042 291.335785,327.208710 
	C291.563782,326.354584 292.097595,325.775146 293.061768,325.699036 
	C295.102783,325.537933 295.213013,327.433807 296.312012,328.775818 
z"/>
<path fill="#000000" opacity="1.000000" stroke="none" 
	d="
M279.537445,310.796448 
	C280.504242,311.484772 281.170349,312.093079 282.047424,312.970276 
	C284.253967,315.453644 286.223511,317.692474 288.258545,319.870117 
	C289.032379,320.698151 289.365173,321.555054 288.762787,322.534302 
	C288.274689,323.327789 287.098389,323.743103 286.634430,323.140656 
	C282.631805,317.943512 276.237915,314.792847 273.153870,308.092285 
	C276.406525,307.410309 277.139832,310.540100 279.537445,310.796448 
z"/>
<path fill="#000000" opacity="1.000000" stroke="none" 
	d="
M282.831421,328.890259 
	C282.214325,324.982819 278.060272,323.286316 277.272644,319.511963 
	C281.919312,320.231689 290.738892,329.856415 290.900208,334.324768 
	C287.434143,334.198547 286.902740,329.951599 283.586853,329.368958 
	C283.285583,329.357025 282.987152,329.041565 282.831421,328.890259 
z"/>
<path fill="#000000" opacity="1.000000" stroke="none" 
	d="
M296.619171,306.518860 
	C297.587250,303.063751 298.414948,302.641602 300.969116,304.573151 
	C302.978271,306.092499 304.841644,307.556305 307.446991,308.041107 
	C308.716827,308.277405 310.876282,308.953888 310.117493,310.900116 
	C309.231445,313.172607 306.683533,312.774567 305.485718,311.677612 
	C302.922455,309.330231 299.378784,308.992798 296.619171,306.518860 
z"/>
<path fill="#000000" opacity="1.000000" stroke="none" 
	d="
M442.857635,88.333572 
	C438.133911,88.865036 433.368134,89.540016 428.913452,86.655495 
	C433.872131,83.824615 440.640930,84.569695 442.857635,88.333572 
z"/>
<path fill="#000000" opacity="1.000000" stroke="none" 
	d="
M664.320679,77.632370 
	C667.082581,74.167923 671.399170,74.535255 674.881226,72.891838 
	C675.749084,72.482224 676.848145,73.215065 677.145386,74.304543 
	C677.437805,75.376343 676.977783,76.609543 675.903381,76.564049 
	C671.973328,76.397652 668.421753,79.112183 664.320679,77.632370 
z"/>
<path fill="#000000" opacity="1.000000" stroke="none" 
	d="
M428.875671,69.255096 
	C426.783691,65.698975 430.060150,60.349895 435.525635,58.734196 
	C434.304596,63.062099 432.044098,66.296364 428.875671,69.255096 
z"/>
<path fill="#000000" opacity="1.000000" stroke="none" 
	d="
M946.765991,163.693359 
	C948.679138,161.836853 951.127747,161.796188 953.675171,161.137085 
	C955.592346,161.380112 958.501221,159.506470 958.049805,163.722305 
	C957.956482,164.030319 957.993103,163.999252 958.010376,163.982300 
	C955.602539,164.484528 953.171204,164.976303 950.754578,165.532288 
	C949.091553,165.914886 947.405823,166.500809 946.765991,163.693359 
z"/>
<path fill="#000000" opacity="1.000000" stroke="none" 
	d="
M362.400696,79.793610 
	C364.764954,76.219521 365.056793,71.518684 369.907166,68.151192 
	C369.448273,73.389511 367.443512,76.804260 365.472717,80.154625 
	C364.861298,81.194107 363.508514,81.358131 362.400696,79.793610 
z"/>
<path fill="#000000" opacity="1.000000" stroke="none" 
	d="
M898.307617,157.018509 
	C901.587646,156.958221 904.114197,153.547989 907.808594,155.885025 
	C904.518982,159.392151 900.597900,159.945709 896.649353,160.453644 
	C895.541321,158.469925 896.861511,157.857147 898.307617,157.018509 
z"/>
<path fill="#000000" opacity="1.000000" stroke="none" 
	d="
M688.318909,129.531967 
	C686.020630,126.850357 687.049744,125.181252 689.595520,123.666458 
	C691.369690,125.137329 693.268311,126.873199 692.696655,129.182190 
	C692.209167,131.151276 690.146851,130.650940 688.318909,129.531967 
z"/>
<path fill="#000000" opacity="1.000000" stroke="none" 
	d="
M947.448364,177.235809 
	C950.046448,175.955750 952.507935,173.906662 955.162964,177.596512 
	C952.200256,178.382751 949.809387,181.431610 947.448364,177.235809 
z"/>
<path fill="#000000" opacity="1.000000" stroke="none" 
	d="
M665.020691,107.977547 
	C666.699524,107.187706 668.287964,106.212128 670.011292,105.796852 
	C671.914246,105.338295 674.387024,104.856598 673.108948,108.725647 
	C672.970215,109.018105 673.000549,108.996071 672.621094,109.085159 
	C669.860657,108.426895 666.802612,112.570000 664.928467,108.161766 
	C664.928467,108.161766 664.989746,108.038841 665.020691,107.977547 
z"/>
<path fill="#000000" opacity="1.000000" stroke="none" 
	d="
M580.118713,115.091698 
	C577.678040,113.298065 578.151611,112.127922 580.594299,112.005524 
	C583.254700,111.872215 585.011108,113.419312 586.113098,115.929741 
	C583.773071,117.350502 582.172852,115.815041 580.118713,115.091698 
z"/>
<path fill="#000000" opacity="1.000000" stroke="none" 
	d="
M983.809814,157.474640 
	C983.547913,158.893799 984.576782,160.072083 983.259216,161.584229 
	C981.759644,160.757080 980.152222,159.870468 978.281738,158.838745 
	C979.860291,156.131210 981.298218,154.854935 983.809814,157.474640 
z"/>
<path fill="#000000" opacity="1.000000" stroke="none" 
	d="
M449.010986,82.968811 
	C447.827057,83.703239 447.099365,85.352745 444.869232,84.864014 
	C445.007050,81.669304 445.929779,79.142082 449.173950,77.898743 
	C450.788025,79.612473 449.322815,80.919731 449.063477,82.661118 
	C448.962463,83.025642 448.996582,82.989204 449.010986,82.968811 
z"/>
<path fill="#000000" opacity="1.000000" stroke="none" 
	d="
M380.534271,35.268089 
	C379.775299,33.551331 378.049408,32.130630 380.057037,30.632883 
	C380.802917,30.076426 381.682526,30.486708 382.204895,31.248734 
	C383.138428,32.610577 384.451141,34.051365 383.574921,35.764698 
	C382.789032,37.301460 381.651550,36.374348 380.534271,35.268089 
z"/>
<path fill="#000000" opacity="1.000000" stroke="none" 
	d="
M694.876282,299.316772 
	C694.345642,298.642029 693.843933,297.941315 694.007690,297.473389 
	C694.578613,295.841888 694.537109,293.718414 696.663513,293.103577 
	C697.119324,292.971832 698.082581,293.391785 698.291443,293.814697 
	C699.266724,295.789581 697.111023,296.628693 696.524170,298.061646 
	C696.305115,298.596588 695.660828,298.957367 694.876282,299.316772 
z"/>
</svg>